<?xml version="1.0"?><svg width="640" height="480" xmlns="http://www.w3.org/2000/svg" xmlns:xlink="http://www.w3.org/1999/xlink">
 <defs>
  <linearGradient id="linearGradient5052">
   <stop stop-color="#ffff00" id="stop5054" offset="0"/>
   <stop stop-color="#ffff00" stop-opacity="0" id="stop5056" offset="1"/>
  </linearGradient>
  <linearGradient id="linearGradient4746">
   <stop stop-color="#ffc400" id="stop4748" offset="0"/>
   <stop stop-color="#ffac00" stop-opacity="0" id="stop4750" offset="1"/>
  </linearGradient>
  <linearGradient id="linearGradient4609">
   <stop stop-color="#ff9400" id="stop4611" offset="0"/>
   <stop stop-color="#ff8900" stop-opacity="0" id="stop4613" offset="1"/>
  </linearGradient>
  <radialGradient gradientUnits="userSpaceOnUse" gradientTransform="matrix(0.99144486,-0.13052619,0.13052619,0.99144486,295.32674,168.1727)" r="249.35237" fy="365.21933" fx="14.285715" cy="365.21933" cx="14.285715" id="radialGradient4615" xlink:href="#linearGradient4609"/>
  <radialGradient gradientUnits="userSpaceOnUse" r="136.07143" fy="554.86218" fx="355.35715" cy="554.86218" cx="355.35715" id="radialGradient4702" xlink:href="#linearGradient4609"/>
  <linearGradient gradientUnits="userSpaceOnUse" y2="554.86218" x2="497.53433" y1="554.86218" x1="213.17995" id="linearGradient4752" xlink:href="#linearGradient4746"/>
  <radialGradient gradientUnits="userSpaceOnUse" r="136.07143" fy="554.86218" fx="355.35715" cy="554.86218" cx="355.35715" id="radialGradient4702-0" xlink:href="#linearGradient4609-2"/>
  <linearGradient id="linearGradient4609-2">
   <stop stop-color="#ff9400" id="stop4611-4" offset="0"/>
   <stop stop-color="#ff8900" stop-opacity="0" id="stop4613-9" offset="1"/>
  </linearGradient>
  <linearGradient gradientUnits="userSpaceOnUse" y2="554.86218" x2="497.53433" y1="554.86218" x1="213.17995" id="linearGradient4752-0" xlink:href="#linearGradient4746-2"/>
  <linearGradient id="linearGradient4746-2">
   <stop stop-color="#fff600" id="stop4748-2" offset="0"/>
   <stop stop-color="#ffac00" stop-opacity="0" id="stop4750-1" offset="1"/>
  </linearGradient>
  <radialGradient xlink:href="#linearGradient4609-2" id="radialGradient4775" gradientUnits="userSpaceOnUse" cx="355.35715" cy="554.86218" fx="355.35715" fy="554.86218" r="136.07143"/>
  <linearGradient xlink:href="#linearGradient4746-2" id="linearGradient4777" gradientUnits="userSpaceOnUse" x1="213.17995" y1="554.86218" x2="497.53433" y2="554.86218"/>
  <radialGradient gradientUnits="userSpaceOnUse" gradientTransform="translate(342.87507,163.16068)" r="249.35237" fy="365.21933" fx="14.285715" cy="365.21933" cx="14.285715" id="radialGradient4615-4" xlink:href="#linearGradient4609-4"/>
  <linearGradient id="linearGradient4609-4">
   <stop stop-color="#ff9400" id="stop4611-42" offset="0"/>
   <stop stop-color="#ff8900" stop-opacity="0" id="stop4613-5" offset="1"/>
  </linearGradient>
  <radialGradient xlink:href="#linearGradient4609-4" id="radialGradient4839" gradientUnits="userSpaceOnUse" gradientTransform="matrix(0.70710678,-0.70710679,0.70710679,0.70710678,88.926641,280.13495)" cx="14.285715" cy="365.21933" fx="14.285715" fy="365.21933" r="249.35237"/>
  <radialGradient xlink:href="#linearGradient4609-2-4" id="radialGradient4775-4" gradientUnits="userSpaceOnUse" cx="355.35715" cy="554.86218" fx="355.35715" fy="554.86218" r="136.07143"/>
  <linearGradient id="linearGradient4609-2-4">
   <stop stop-color="#ff9400" id="stop4611-4-6" offset="0"/>
   <stop stop-color="#ff8900" stop-opacity="0" id="stop4613-9-9" offset="1"/>
  </linearGradient>
  <linearGradient xlink:href="#linearGradient4746-2-5" id="linearGradient4777-8" gradientUnits="userSpaceOnUse" x1="213.17995" y1="554.86218" x2="497.53433" y2="554.86218"/>
  <linearGradient id="linearGradient4746-2-5">
   <stop stop-color="#fff600" id="stop4748-2-6" offset="0"/>
   <stop stop-color="#ffac00" stop-opacity="0" id="stop4750-1-6" offset="1"/>
  </linearGradient>
  <radialGradient gradientUnits="userSpaceOnUse" r="136.07143" fy="554.86218" fx="355.35715" cy="554.86218" cx="355.35715" id="radialGradient4702-07" xlink:href="#linearGradient4609-27"/>
  <linearGradient id="linearGradient4609-27">
   <stop stop-color="#ff9400" id="stop4611-2" offset="0"/>
   <stop stop-color="#ff8900" stop-opacity="0" id="stop4613-6" offset="1"/>
  </linearGradient>
  <linearGradient gradientUnits="userSpaceOnUse" y2="554.86218" x2="497.53433" y1="554.86218" x1="213.17995" id="linearGradient4752-4" xlink:href="#linearGradient4746-7"/>
  <linearGradient id="linearGradient4746-7">
   <stop stop-color="#ffc400" id="stop4748-1" offset="0"/>
   <stop stop-color="#ffac00" stop-opacity="0" id="stop4750-3" offset="1"/>
  </linearGradient>
  <radialGradient gradientUnits="userSpaceOnUse" r="141.70752" fy="554.86218" fx="355.35715" cy="554.86218" cx="355.35715" id="radialGradient5058" xlink:href="#linearGradient5052"/>
  <radialGradient r="249.35237" fy="365.21933" fx="14.285715" cy="365.21933" cx="14.285715" gradientTransform="matrix(0.99144486,-0.13052619,0.13052619,0.99144486,295.32674,168.1727)" gradientUnits="userSpaceOnUse" id="radialGradient5122" xlink:href="#linearGradient4609"/>
  <radialGradient r="249.35237" fy="365.21933" fx="14.285715" cy="365.21933" cx="14.285715" gradientTransform="matrix(0.70710678,-0.70710679,0.70710679,0.70710678,88.926641,280.13495)" gradientUnits="userSpaceOnUse" id="radialGradient5124" xlink:href="#linearGradient4609-4"/>
  <radialGradient r="136.07143" fy="554.86218" fx="355.35715" cy="554.86218" cx="355.35715" gradientUnits="userSpaceOnUse" id="radialGradient5126" xlink:href="#linearGradient4609-2"/>
  <linearGradient y2="554.86218" x2="497.53433" y1="554.86218" x1="213.17995" gradientUnits="userSpaceOnUse" id="linearGradient5128" xlink:href="#linearGradient4746-2"/>
  <radialGradient r="136.07143" fy="554.86218" fx="355.35715" cy="554.86218" cx="355.35715" gradientUnits="userSpaceOnUse" id="radialGradient5130" xlink:href="#linearGradient4609"/>
  <linearGradient y2="554.86218" x2="497.53433" y1="554.86218" x1="213.17995" gradientUnits="userSpaceOnUse" id="linearGradient5132" xlink:href="#linearGradient4746"/>
  <radialGradient r="249.35237" fy="365.21933" fx="14.285715" cy="365.21933" cx="14.285715" gradientTransform="matrix(0.70710678,-0.70710679,0.70710679,0.70710678,88.926641,280.13495)" gradientUnits="userSpaceOnUse" id="radialGradient5143" xlink:href="#linearGradient4609-4"/>
  <radialGradient r="249.35237" fy="365.21933" fx="14.285715" cy="365.21933" cx="14.285715" gradientTransform="matrix(0.99144486,-0.13052619,0.13052619,0.99144486,295.32674,168.1727)" gradientUnits="userSpaceOnUse" id="radialGradient5171" xlink:href="#linearGradient4609"/>
  <radialGradient r="141.70752" fy="554.86218" fx="355.35715" cy="554.86218" cx="355.35715" gradientUnits="userSpaceOnUse" id="radialGradient5261" xlink:href="#linearGradient5052"/>
  <radialGradient r="249.35237" fy="365.21933" fx="14.285715" cy="365.21933" cx="14.285715" gradientTransform="matrix(0.99144486,-0.13052619,0.13052619,0.99144486,295.32674,168.1727)" gradientUnits="userSpaceOnUse" id="radialGradient5263" xlink:href="#linearGradient4609"/>
  <radialGradient r="249.35237" fy="365.21933" fx="14.285715" cy="365.21933" cx="14.285715" gradientTransform="matrix(0.70710678,-0.70710679,0.70710679,0.70710678,88.926641,280.13495)" gradientUnits="userSpaceOnUse" id="radialGradient5265" xlink:href="#linearGradient4609-4"/>
  <radialGradient r="136.07143" fy="554.86218" fx="355.35715" cy="554.86218" cx="355.35715" gradientUnits="userSpaceOnUse" id="radialGradient5267" xlink:href="#linearGradient4609-2"/>
  <linearGradient y2="554.86218" x2="497.53433" y1="554.86218" x1="213.17995" gradientUnits="userSpaceOnUse" id="linearGradient5269" xlink:href="#linearGradient4746-2"/>
  <radialGradient r="136.07143" fy="554.86218" fx="355.35715" cy="554.86218" cx="355.35715" gradientUnits="userSpaceOnUse" id="radialGradient5271" xlink:href="#linearGradient4609"/>
  <linearGradient y2="554.86218" x2="497.53433" y1="554.86218" x1="213.17995" gradientUnits="userSpaceOnUse" id="linearGradient5273" xlink:href="#linearGradient4746"/>
  <radialGradient gradientUnits="userSpaceOnUse" gradientTransform="matrix(1,0,0,0.34434018,0,393.5662)" r="51.997475" fy="600.25977" fx="357.14389" cy="600.25977" cx="357.14389" id="radialGradient4123" xlink:href="#linearGradient4609-2"/>
 </defs>
 <metadata id="metadata7">image/svg+xml</metadata>
 <g>
  <g id="g4808">
   <path fill="#000000" stroke="#000000" stroke-width="1px" id="path2830" d="m441.181152,204.486465c-29.259979,0.195541 -57.457184,9.341675 -86.177032,12.998764c-11.98703,1.526398 -24.341187,1.900879 -36.348328,0.481445c-15.963867,-1.887207 -31.420105,-6.900528 -47.373322,-9.147293c-14.257019,-2.007874 -28.693359,-4.10405 -43.040375,-4.188492c-25.071777,-0.147568 -49.321198,7.702225 -73.900406,11.939621c0,7.190262 -1.46022,16.418793 2.2146,21.472046c3.79039,5.212143 10.184647,9.979187 11.843353,17.042801c3.933456,16.751251 9.517715,33.172058 16.657654,48.91394c3.469788,7.649963 10.018982,12.983673 17.33165,16.657654c17.609711,8.84726 38.452652,10.148224 57.7724,7.365936c27.512024,-3.962067 42.437164,-24.605072 53.824524,-48.191711c4.262421,-9.588013 4.737823,-20.653351 10.350891,-29.415756c3.333954,-5.204666 11.076141,-3.013947 16.609406,-3.033035c8.240723,-0.028305 10.222595,9.18396 11.939667,15.309662c6.07724,21.67923 16.210236,44.67981 36.348511,56.039154c30.072876,16.963165 77.449707,13.79007 96.961182,-16.802094c7.635986,-11.972626 9.745331,-26.499908 13.576447,-40.05545c2.332367,-8.25235 4.415558,-18.090561 12.709961,-22.627533c3.347412,-1.830994 0.998352,-9.137299 1.492432,-13.383896c0.53833,-4.627579 1.576294,-8.719772 -5.006958,-9.628723c-11.483215,-1.585556 -22.621979,-6.407898 -34.374512,-8.039978c-11.137299,-1.546661 -22.049194,-3.78299 -33.411743,-3.707062zm-193.440872,7.702972c8.305649,-0.052856 16.576431,0.555099 24.649521,2.262741c48.100494,10.17424 49.07312,29.991821 29.271301,70.963684c-16.135529,33.385834 -49.560242,41.751038 -83.24028,33.748596c-15.525513,-3.688751 -26.141953,-14.526337 -31.148941,-29.367554c-5.284454,-15.663727 -9.28183,-32.306366 -8.376968,-48.769455c1.211807,-22.046387 26.14827,-25.144775 44.00325,-27.152985c8.193161,-0.921539 16.536377,-1.632233 24.842117,-1.685028zm175.627823,0c8.305725,0.052841 16.648956,0.763489 24.842102,1.685028c17.85498,2.008209 42.791504,5.106598 44.003174,27.152985c0.904938,16.463089 -3.092438,33.105728 -8.376892,48.769455c-5.006989,14.841217 -15.623535,25.678802 -31.149017,29.367554c-33.679962,8.002441 -67.104767,-0.362762 -83.240204,-33.748596c-19.801819,-40.971863 -18.829193,-60.789383 29.271301,-70.963684c8.073181,-1.707642 16.343781,-2.315536 24.649536,-2.262741z"/>
   <path opacity="0.85" fill="#000000" stroke="#000000" stroke-width="1px" id="path2832" d="m222.891602,213.891022c16.386307,-1.843048 33.342987,-2.840393 49.489166,0.574844c48.100677,10.17424 49.070557,29.994171 29.268738,70.96608c-16.135529,33.385773 -49.542755,41.753235 -83.222794,33.750977c-15.525436,-3.688812 -26.148102,-14.56485 -31.155075,-29.406036c-5.284531,-15.663727 -9.303818,-32.296997 -8.398972,-48.760071c1.211823,-22.046371 26.163956,-25.117493 44.018936,-27.125763l0,-0.000031z"/>
   <path opacity="0.85" fill="#000000" stroke="#000000" stroke-width="1px" id="path2832-1" d="m448.200562,213.891022c-16.38623,-1.843048 -33.342896,-2.840393 -49.489075,0.574844c-48.100586,10.17424 -49.070648,29.994171 -29.268829,70.96608c16.135529,33.385773 49.542847,41.753235 83.222809,33.750977c15.525513,-3.688812 26.148102,-14.56485 31.155151,-29.406036c5.284454,-15.663727 9.303925,-32.296997 8.398895,-48.760071c-1.21167,-22.046371 -26.163971,-25.117493 -44.018951,-27.125763l0,-0.000031z"/>
  </g>
  <title>Layer 1</title>
 </g>
</svg>